# xmcd CD database file
#
# Track frame offsets:
#	150
#	19560
#	33477
#	45639
#	60444
#	65241
#	74451
#	90291
#	103925
#	120342
#	142620
#	151077
#	168930
#	188331
#	206901
#	218271
#
# Disc length: 3066 seconds
#
# Revision: 0
# Processed by: cddbd v1.5.2PL0 Copyright (c) Steve Scherf et al.
# Submitted via: CDex 1.50
#
DISCID=c80bf810
DTITLE=Rangers - Live 1970/71 CD 1
DYEAR=2008
DGENRE=Country
TTITLE0=Predstavovaci pisen
TTITLE1=Uvodni slovo
TTITLE2=Velke lasce zamavej
TTITLE3=Rakosi
TTITLE4=Rozjimani nad probouzejicim se dnem
TTITLE5=Ave Dies
TTITLE6=Prazdne nadrazi
TTITLE7=Pojdte sem
TTITLE8=Uvod k pisni Nos pro trable
TTITLE9=Nos pro trable
TTITLE10=Prodej o prestavce
TTITLE11=Mam radost
TTITLE12=Tece voda
TTITLE13=Psanicko pro Honzu Vancuru
TTITLE14=Modry mesic
TTITLE15=O malo vic
EXTD=YEAR: 2008
EXTT0=
EXTT1=
EXTT2=
EXTT3=
EXTT4=
EXTT5=
EXTT6=
EXTT7=
EXTT8=
EXTT9=
EXTT10=
EXTT11=
EXTT12=
EXTT13=
EXTT14=
EXTT15=
PLAYORDER=
